<!DOCTYPE svg PUBLIC "-//W3C//DTD SVG 1.1//EN" "http://www.w3.org/Graphics/SVG/1.1/DTD/svg11.dtd">
<!-- Uploaded to: SVG Repo, www.svgrepo.com, Transformed by: SVG Repo Mixer Tools -->
<svg fill="#f0b128" width="800px" height="800px" viewBox="0 0 100 100" version="1.1" xml:space="preserve" xmlns="http://www.w3.org/2000/svg" xmlns:xlink="http://www.w3.org/1999/xlink" stroke="#f0b128">
<g id="SVGRepo_bgCarrier" stroke-width="0"/>
<g id="SVGRepo_tracerCarrier" stroke-linecap="round" stroke-linejoin="round"/>
<g id="SVGRepo_iconCarrier"> <g id="_x31_"/> <g id="_x32_"/> <g id="_x33_"/> <g id="_x34_"/> <g id="_x35_"/> <g id="_x36_"> <path d="M37.7,27.5c-0.3,0-0.7-0.1-1-0.4c-0.6-0.5-0.7-1.5-0.2-2.1c0.3-0.3,2.4-3.1,0.2-5c-3.7-3.1-1.7-7.4-0.2-9.2 c0.5-0.6,1.5-0.7,2.1-0.2c0.6,0.5,0.7,1.5,0.2,2.1l0,0c-0.3,0.3-2.4,3.1-0.2,5c3.7,3.1,1.7,7.4,0.2,9.2 C38.6,27.3,38.2,27.5,37.7,27.5z M60.9,26.9c1.5-1.8,3.5-6.1-0.2-9.2c-2.3-1.9-0.1-4.7,0.2-5l0,0c0.5-0.6,0.4-1.6-0.2-2.1 c-0.6-0.5-1.6-0.5-2.1,0.2c-1.5,1.8-3.5,6.1,0.2,9.2c2.3,1.9,0.1,4.7-0.2,5c-0.5,0.6-0.5,1.6,0.2,2.1c0.3,0.2,0.6,0.4,1,0.4 C60.2,27.5,60.6,27.3,60.9,26.9z M47.7,54.9c0-0.8-0.6-1.5-1.4-1.6c-7.4-0.4-8.1-6.8-8.1-7.1c-0.1-0.8-0.8-1.4-1.6-1.4 c-0.8,0.1-1.4,0.8-1.4,1.6c0.2,3.2,2.8,9.4,10.9,9.9c0,0,0.1,0,0.1,0C47,56.3,47.7,55.7,47.7,54.9z M79.4,38.6 c0,0.8-0.7,1.5-1.5,1.5h-2.8v0.1c0,9-4.8,17.3-12.6,21.7l3.7,10.2c0.4-0.1,0.9-0.1,1.4-0.1c4.9,0,8.9,4,8.9,8.9s-4,8.9-8.9,8.9 c-2.4,0-4.6-0.9-6.3-2.6c0,0,0,0,0,0c0,0,0,0,0,0c-1.3-1.3-2.1-3-2.4-4.7H32.5L31,86.6c-0.2,0.6-0.8,1-1.4,1c-0.2,0-0.3,0-0.5-0.1 c-0.8-0.3-1.2-1.1-0.9-1.9l8.7-23.9c-7.5-4.5-12-12.6-12-21.4v-0.1h-2.8c-0.8,0-1.5-0.7-1.5-1.5s0.7-1.5,1.5-1.5h55.9 C78.8,37.1,79.4,37.8,79.4,38.6z M67.6,75c-0.6,0-1.3,0.1-1.8,0.3c-2.4,0.8-3.9,2.9-4,5.4c0,0.1,0,0.1,0,0.2c0,0.1,0,0.1,0,0.2 c0,1.5,0.6,2.9,1.7,3.9c1.1,1.1,2.6,1.7,4.2,1.7c3.2,0,5.9-2.6,5.9-5.9S70.9,75,67.6,75z M63.4,73.1l-3.6-9.8c0,0,0,0,0,0 c-0.6,0.2-1.2,0.5-1.8,0.7c-2.6,0.9-5.3,1.3-8.1,1.3s-5.5-0.4-8.1-1.3c-0.6-0.2-1.2-0.4-1.8-0.7c-0.1,0-0.2-0.1-0.3-0.1 c-0.1,0-0.2-0.1-0.2-0.1l-6,16.3h25.3c0-0.3,0.1-0.5,0.2-0.8c0-0.1,0-0.1,0.1-0.2c0.1-0.3,0.2-0.7,0.3-1c0,0,0-0.1,0.1-0.1 c0.1-0.3,0.3-0.6,0.5-0.9c0,0,0-0.1,0-0.1c0.2-0.3,0.4-0.6,0.6-0.9c0,0,0.1-0.1,0.1-0.1c0.2-0.3,0.4-0.5,0.7-0.8 c0,0,0.1-0.1,0.1-0.1c0.3-0.2,0.5-0.5,0.8-0.7c0,0,0,0,0.1,0C62.7,73.5,63,73.3,63.4,73.1C63.4,73.1,63.4,73.1,63.4,73.1z M72.1,40.2H27.9v0.1c0,8.1,4.4,15.6,11.6,19.5c0,0,0,0,0,0c0.5,0.3,1.1,0.6,1.7,0.8c0.6,0.3,1.2,0.5,1.7,0.7 c4.6,1.6,9.6,1.6,14.2,0c1-0.4,2-0.8,2.9-1.2C67.5,56.1,72.1,48.6,72.1,40.2L72.1,40.2z"/> </g> <g id="_x37_"/> <g id="_x38__x27_"/> <g id="_x39_"/> <g id="_x31_0"/> <g id="_x31_1"/> <g id="_x31_2"/> <g id="_x31_3"/> <g id="_x31_4"/> <g id="_x31_5"/> <g id="_x31_6"/> <g id="_x31_7"/> <g id="_x31_8"/> <g id="_x31_9"/> <g id="_x32_0"/> <g id="_x32_1"/> <g id="_x32_2"/> <g id="_x32_3"/> <g id="_x32_4"/> <g id="_x32_5"/> </g>
</svg>