<svg xmlns="http://www.w3.org/2000/svg" viewBox="0 0 60 60" xml:space="preserve"><path d="M18.35 20.805a.997.997 0 0 0 1.414 0 1 1 0 0 0 0-1.414 2.61 2.61 0 0 1 0-3.684c.87-.87 1.35-2.026 1.35-3.256s-.479-2.386-1.35-3.256a.999.999 0 1 0-1.414 1.414c.492.492.764 1.146.764 1.842s-.271 1.35-.764 1.842a4.61 4.61 0 0 0 0 6.512m22 0a.997.997 0 0 0 1.414 0 1 1 0 0 0 0-1.414 2.61 2.61 0 0 1 0-3.684c.87-.87 1.35-2.026 1.35-3.256s-.479-2.386-1.35-3.256a.999.999 0 1 0-1.414 1.414c.492.492.764 1.146.764 1.842s-.271 1.35-.764 1.842a4.61 4.61 0 0 0 0 6.512m-11-6a.997.997 0 0 0 1.414 0 1 1 0 0 0 0-1.414 2.61 2.61 0 0 1 0-3.684c.87-.87 1.35-2.026 1.35-3.256s-.479-2.386-1.35-3.256a.999.999 0 1 0-1.414 1.414c.492.492.764 1.146.764 1.842s-.271 1.35-.764 1.842a4.61 4.61 0 0 0 0 6.512M25.345 28.61q.11 0 .221-.024a20 20 0 0 1 4.421-.488H30a1 1 0 1 0 0-2h-.014a22.2 22.2 0 0 0-4.86.537 1 1 0 0 0 .219 1.975M9.821 45.081a1 1 0 0 0 1.163-.803c1.039-5.698 4.473-10.768 9.186-13.56a1 1 0 0 0-1.019-1.721c-5.204 3.083-8.992 8.661-10.134 14.921a1 1 0 0 0 .804 1.163"/><path d="M55.624 43.721C53.812 33.08 45.517 24.625 34.957 22.577c.017-.16.043-.321.043-.48 0-2.757-2.243-5-5-5s-5 2.243-5 5c0 .159.025.32.043.48C14.483 24.625 6.188 33.08 4.376 43.721 2.286 44.904 0 46.645 0 48.598c0 5.085 15.512 8.5 30 8.5s30-3.415 30-8.5c0-1.953-2.286-3.694-4.376-4.877M27.006 22.27A3.004 3.004 0 0 1 30 19.098a3.004 3.004 0 0 1 2.994 3.172l-.14-.012a25 25 0 0 0-1.038-.089c-.128-.009-.255-.022-.383-.029q-.71-.04-1.432-.041c-.722-.001-.958.015-1.432.041-.128.007-.255.02-.383.029q-.522.035-1.038.089c-.048.005-.095.006-.142.012m-.607 2.098a24 24 0 0 1 1.952-.207 24.5 24.5 0 0 1 3.632.025q.813.064 1.619.182c10.418 1.575 18.657 9.872 20.152 20.316q.068.482.116.965c.011.111.026.221.036.332q.06.664.082 1.329a106.7 106.7 0 0 1-47.974 0q.023-.665.082-1.329.016-.166.036-.332.048-.485.116-.965c1.494-10.444 9.733-18.742 20.151-20.316M30 55.098c-17.096 0-28-4.269-28-6.5 0-.383.474-1.227 2.064-2.328-.004.057-.002.113-.006.17-.034.548-.058 1.1-.058 1.658v.788l.767.185c8.254 1.98 16.744 2.972 25.233 2.972s16.979-.991 25.233-2.972l.767-.185v-.788c0-.558-.024-1.109-.058-1.658-.004-.057-.002-.113-.006-.17C57.526 47.371 58 48.215 58 48.598c0 2.231-10.904 6.5-28 6.5"/><g/><g/><g/><g/><g/><g/><g/><g/><g/><g/><g/><g/><g/><g/><g/></svg>
