<!DOCTYPE svg PUBLIC "-//W3C//DTD SVG 1.1//EN" "http://www.w3.org/Graphics/SVG/1.1/DTD/svg11.dtd">
<!-- Uploaded to: SVG Repo, www.svgrepo.com, Transformed by: SVG Repo Mixer Tools -->
<svg fill="#000000" version="1.1" id="Layer_1" xmlns="http://www.w3.org/2000/svg" xmlns:xlink="http://www.w3.org/1999/xlink" viewBox="0 0 512 512" xml:space="preserve" width="64px" height="64px">
<g id="SVGRepo_bgCarrier" stroke-width="0"/>
<g id="SVGRepo_tracerCarrier" stroke-linecap="round" stroke-linejoin="round"/>
<g id="SVGRepo_iconCarrier"> <g> <g> <path d="M187.899,0c-21.976,0-39.855,17.879-39.855,39.856v56.017c0,21.976,17.879,39.855,39.855,39.855 c21.977,0,39.856-17.879,39.856-39.856V39.855C227.755,17.879,209.876,0,187.899,0z M212.064,95.873 c0,13.325-10.84,24.165-24.165,24.165c-13.325,0-24.164-10.84-24.164-24.165V39.856c0-13.325,10.839-24.165,24.164-24.165 c13.325,0,24.165,10.84,24.165,24.165V95.873z"/> </g> </g> <g> <g> <polygon points="324.098,271.927 324.098,288.088 283.771,288.088 283.771,271.927 268.08,271.927 268.08,303.779 339.789,303.779 339.789,271.927 "/> </g> </g> <g> <g> <polygon points="92.027,168.052 92.027,319.784 123.88,319.784 123.88,304.093 107.718,304.093 107.718,183.742 268.08,183.742 268.08,215.909 283.771,215.909 283.771,168.052 "/> </g> </g> <g> <g> <polygon points="228.068,199.904 228.068,328.101 147.731,328.101 147.731,199.904 132.04,199.904 132.04,343.792 243.759,343.792 243.759,199.904 "/> </g> </g> <g> <g> <rect x="132.043" y="351.949" width="15.691" height="160.048"/> </g> </g> <g> <g> <rect x="228.072" y="351.949" width="15.691" height="160.048"/> </g> </g> <g> <g> <polygon points="180.054,376.115 180.054,512 195.745,512 195.745,391.806 203.905,391.806 203.905,376.115 "/> </g> </g> <g> <g> <rect x="259.925" y="248.074" width="160.048" height="15.691"/> </g> </g> <g> <g> <path d="M347.791,184.618v-16.723H332.1v16.723c-27.097,3.828-48.013,27.16-48.013,55.298h15.691 c-0.001-22.149,18.018-40.169,40.168-40.169c22.149,0,40.169,18.02,40.169,40.169h15.691 C395.806,211.779,374.89,188.446,347.791,184.618z"/> </g> </g> <g> <g> <rect x="180.058" y="143.886" width="15.691" height="16.005"/> </g> </g> <g> <g> <rect x="203.908" y="144.043" width="24.007" height="15.691"/> </g> </g> <g> <g> <rect x="147.891" y="144.043" width="24.007" height="15.691"/> </g> </g> <g> <g> <rect x="180.058" y="199.903" width="15.691" height="16.005"/> </g> </g> <g> <g> <rect x="180.058" y="231.913" width="15.691" height="16.005"/> </g> </g> <g> <g> <rect x="180.058" y="263.922" width="15.691" height="16.005"/> </g> </g> <g> <g> <rect x="180.058" y="295.932" width="15.691" height="16.005"/> </g> </g> </g>
</svg>